# Made in Blockbench 4.7.2
mtllib Coin.mtl

o cylinder
v 0 0.1875 -4.163336342344337e-17
v 0 0.1875 0.06249999999999996
v 0.07766504294495533 0 0
v 0.07766504294495533 1.3877787807814457e-17 0.0625
v 0.1875 0.10983495705504466 -2.4388259646245172e-17
v 0.1875 0.10983495705504467 0.06249999999999997
v 0.1875 0.26516504294495535 -5.887846720064157e-17
v 0.1875 0.26516504294495535 0.062499999999999944
v 0.07766504294495535 0.375 -8.326672684688674e-17
v 0.07766504294495535 0.375 0.06249999999999992
v -0.07766504294495531 0.375 -8.326672684688674e-17
v -0.07766504294495531 0.375 0.06249999999999992
v -0.18749999999999997 0.26516504294495546 -5.88784672006416e-17
v -0.18749999999999997 0.26516504294495546 0.062499999999999944
v -0.1875 0.10983495705504463 -2.4388259646245166e-17
v -0.1875 0.10983495705504465 0.06249999999999997
v -0.07766504294495545 2.7755575615628914e-17 -6.162975822039155e-33
v -0.07766504294495545 4.163336342344337e-17 0.0625
vt 0.375 0.8901625
vt 0.26516249999999997 1
vt 0.1875 0.8125
vt 0.625 0.9375
vt 0.75 0.9375
vt 0.75 1
vt 0.625 1
vt 0.26516249999999997 0.1875
vt 0.375 0.29733750000000003
vt 0.1875 0.375
vt 0.375 0.7348375
vt 0.375 0.8901625
vt 0.1875 0.8125
vt 0.4375 0.9375
vt 0.5625 0.9375
vt 0.5625 1
vt 0.4375 1
vt 0.375 0.29733750000000003
vt 0.375 0.45266249999999997
vt 0.1875 0.375
vt 0.26516249999999997 0.625
vt 0.375 0.7348375
vt 0.1875 0.8125
vt 0.4375 0.4375
vt 0.5625 0.4375
vt 0.5625 0.5
vt 0.4375 0.5
vt 0.375 0.45266249999999997
vt 0.26516249999999997 0.5625
vt 0.1875 0.375
vt 0.1098375 0.625
vt 0.26516249999999997 0.625
vt 0.1875 0.8125
vt 0.4375 0.8125
vt 0.5625 0.8125
vt 0.5625 0.875
vt 0.4375 0.875
vt 0.26516249999999997 0.5625
vt 0.1098375 0.5625
vt 0.1875 0.375
vt 0 0.7348375
vt 0.1098375 0.625
vt 0.1875 0.8125
vt 0.625 0.6875
vt 0.75 0.6875
vt 0.75 0.75
vt 0.625 0.75
vt 0.1098375 0.5625
vt 0 0.45266249999999997
vt 0.1875 0.375
vt 0 0.8901625
vt 0 0.7348375
vt 0.1875 0.8125
vt 0.4375 0.6875
vt 0.5625 0.6875
vt 0.5625 0.75
vt 0.4375 0.75
vt 0 0.45266249999999997
vt 0 0.29733750000000003
vt 0.1875 0.375
vt 0.1098375 1
vt 0 0.8901625
vt 0.1875 0.8125
vt 0.625 0.8125
vt 0.75 0.8125
vt 0.75 0.875
vt 0.625 0.875
vt 0 0.29733750000000003
vt 0.1098375 0.1875
vt 0.1875 0.375
vt 0.26516249999999997 1
vt 0.1098375 1
vt 0.1875 0.8125
vt 0.4375 0.5625
vt 0.5625 0.5625
vt 0.5625 0.625
vt 0.4375 0.625
vt 0.1098375 0.1875
vt 0.26516249999999997 0.1875
vt 0.1875 0.375
vn 0 -2.220446049250313e-16 -1
vn 0.7071067811865475 -0.7071067811865476 1.5700924586837752e-16
vn 0 2.220446049250313e-16 1
vn 0 -2.220446049250313e-16 -1
vn 1 0 0
vn 0 2.220446049250313e-16 1
vn 0 -2.220446049250313e-16 -1
vn 0.7071067811865476 0.7071067811865476 -1.5700924586837752e-16
vn 0 2.220446049250313e-16 1
vn 0 -2.220446049250313e-16 -1
vn 0 1 -2.220446049250313e-16
vn 0 2.220446049250313e-16 1
vn 0 -2.220446049250313e-16 -1
vn -0.7071067811865471 0.707106781186548 -1.5700924586837762e-16
vn 0 2.220446049250313e-16 1
vn 0 -2.220446049250313e-16 -1
vn -1 1.7868769888726192e-16 -3.967663950438503e-32
vn 0 2.220446049250313e-16 1
vn 0 -2.220446049250313e-16 -1
vn -0.7071067811865478 -0.7071067811865474 1.5700924586837747e-16
vn 0 2.220446049250313e-16 1
vn 0 -2.220446049250313e-16 -1
vn -1.7868769888726197e-16 -1 2.220446049250313e-16
vn 0 2.220446049250313e-16 1
usemtl m_6e32ad84-c5d3-115f-8054-c283d2ce53a0
f 5/1/1 3/2/1 1/3/1
f 3/4/2 5/5/2 6/6/2 4/7/2
f 4/8/3 6/9/3 2/10/3
f 7/11/4 5/12/4 1/13/4
f 5/14/5 7/15/5 8/16/5 6/17/5
f 6/18/6 8/19/6 2/20/6
f 9/21/7 7/22/7 1/23/7
f 7/24/8 9/25/8 10/26/8 8/27/8
f 8/28/9 10/29/9 2/30/9
f 11/31/10 9/32/10 1/33/10
f 9/34/11 11/35/11 12/36/11 10/37/11
f 10/38/12 12/39/12 2/40/12
f 13/41/13 11/42/13 1/43/13
f 11/44/14 13/45/14 14/46/14 12/47/14
f 12/48/15 14/49/15 2/50/15
f 15/51/16 13/52/16 1/53/16
f 13/54/17 15/55/17 16/56/17 14/57/17
f 14/58/18 16/59/18 2/60/18
f 17/61/19 15/62/19 1/63/19
f 15/64/20 17/65/20 18/66/20 16/67/20
f 16/68/21 18/69/21 2/70/21
f 3/71/22 17/72/22 1/73/22
f 17/74/23 3/75/23 4/76/23 18/77/23
f 18/78/24 4/79/24 2/80/24