# Made in Blockbench 4.7.2
mtllib NM Stage 5.mtl

o cylinder
v -0.18421506979639676 0.3125 0.6875
v 1.0408340855860843e-17 0.125 1.0408340855860843e-17
v 1.0408340855860843e-17 0.3125 1.0408340855860843e-17
v 0.18421506979639682 0.125 0.6875
v 0.18421506979639682 0.3125 0.6875
v 0.5032849302036031 0.125 0.5032849302036032
v 0.5032849302036031 0.3125 0.5032849302036032
v 0.6875 0.125 0.18421506979639682
v 0.6875 0.3125 0.18421506979639682
v 0.6875 0.125 -0.18421506979639687
v 0.6875 0.3125 -0.18421506979639687
v 0.5032849302036032 0.125 -0.5032849302036031
v 0.5032849302036032 0.3125 -0.5032849302036031
v 0.18421506979639704 0.125 -0.6874999999999999
v 0.18421506979639704 0.3125 -0.6874999999999999
v -0.18421506979639654 0.125 -0.6875
v -0.18421506979639654 0.3125 -0.6875
v -0.5032849302036031 0.125 -0.5032849302036032
v -0.5032849302036031 0.3125 -0.5032849302036032
v -0.6874999999999999 0.125 -0.18421506979639674
v -0.6874999999999999 0.3125 -0.18421506979639674
v -0.6875 0.125 0.1842150697963965
v -0.6875 0.3125 0.1842150697963965
v -0.5032849302036032 0.125 0.5032849302036031
v -0.5032849302036032 0.3125 0.5032849302036031
v -0.18421506979639676 0.125 0.6875
vt 0.12940937979190303 0.9352953101040485
vt 0.11207200540068536 1
vt 0 0.9352953101040484
vt 0 0.890625
vt 0.0669875 0.890625
vt 0.0669875 1
vt 0 1
vt 0 0.8705904513219271
vt 0.06470460545297682 0.8879281408590917
vt 2.0816681711721685e-17 1
vt 0.12940954867807283 0.9352953945470232
vt 0.11207185914090836 1
vt 0 0.9352953945470233
vt 0 0.890625
vt 0.0669875 0.890625
vt 0.0669875 1
vt 0 1
vt 1.3877787807814457e-17 0.870590620208097
vt 0.06470468989595152 0.8879279945993146
vt 0 1
vt 0.125 0.9330125
vt 0.125 1
vt 0 0.96650625
vt 0 0.890625
vt 0.0669875 0.890625
vt 0.0669875 1
vt 0 1
vt 0.125 0.9330125
vt 0.125 1
vt 0 0.96650625
vt 1.3877787807814457e-17 0.870590620208097
vt 0.06470468989595152 0.8879279945993146
vt 0 1
vt 0 0.890625
vt 0.0669875 0.890625
vt 0.0669875 1
vt 0 1
vt 0.12940954867807283 0.9352953945470232
vt 0.11207185914090836 1
vt 0 0.9352953945470233
vt 0 0.8705904513219271
vt 0.06470460545297682 0.8879281408590917
vt 2.0816681711721685e-17 1
vt 0 0.890625
vt 0.0669875 0.890625
vt 0.0669875 1
vt 0 1
vt 0.12940937979190303 0.9352953101040485
vt 0.11207200540068536 1
vt 0 0.9352953101040484
vt 0 0.875
vt 0.0669875 0.875
vt 0.03349375 1
vt 0 0.890625
vt 0.0669875 0.890625
vt 0.0669875 1
vt 0 1
vt 0.0669875 1
vt 0 1
vt 0.03349375 0.875
vt 0 1
vt 0.017337374391217672 0.9352953101040484
vt 0.12940937979190303 1
vt 0 0.890625
vt 0.0669875 0.890625
vt 0.0669875 1
vt 0 1
vt 0.06470460545297682 1
vt 0 0.9826623104628356
vt 0.0647046054529768 0.8705904513219271
vt 0 1
vt 0.01733768953716447 0.9352953945470232
vt 0.12940954867807283 1
vt 0 0.890625
vt 0.0669875 0.890625
vt 0.0669875 1
vt 0 1
vt 0.0647046898959515 1
vt 0 0.9826626256087824
vt 0.06470468989595152 0.870590620208097
vt 0 1
vt 0 0.9330125
vt 0.125 0.96650625
vt 0 0.890625
vt 0.0669875 0.890625
vt 0.0669875 1
vt 0 1
vt 0 1
vt 0 0.9330125
vt 0.125 0.96650625
vt 0.0647046898959515 1
vt 0 0.9826626256087824
vt 0.06470468989595152 0.870590620208097
vt 0 0.890625
vt 0.0669875 0.890625
vt 0.0669875 1
vt 0 1
vt 0 1
vt 0.01733768953716447 0.9352953945470232
vt 0.12940954867807283 1
vt 0.06470460545297682 1
vt 0 0.9826623104628356
vt 0.0647046054529768 0.8705904513219271
vt 0 0.890625
vt 0.0669875 0.890625
vt 0.0669875 1
vt 0 1
vt 0 1
vt 0.017337374391217672 0.9352953101040484
vt 0.12940937979190303 1
vt 0.0669875 1
vt 0 1
vt 0.03349375 0.875
vt 0 0.890625
vt 0.0669875 0.890625
vt 0.0669875 1
vt 0 1
vt 0 0.875
vt 0.0669875 0.875
vt 0.03349375 1
vn 0 -1 0
vn 0.4999999999999999 0 0.8660254037844389
vn 0 1 0
vn 0 -1 0
vn 0.8660254037844387 0 0.4999999999999999
vn 0 1 0
vn 0 -1 0
vn 1 0 0
vn 0 1 0
vn 0 -1 0
vn 0.8660254037844388 0 -0.5
vn 0 1 0
vn 0 -1 0
vn 0.5 0 -0.8660254037844388
vn 0 1 0
vn 0 -1 0
vn 3.0133881713700935e-16 0 -1
vn 0 1 0
vn 0 -1 0
vn -0.4999999999999996 0 -0.8660254037844389
vn 0 1 0
vn 0 -1 0
vn -0.8660254037844388 0 -0.4999999999999996
vn 0 1 0
vn 0 -1 0
vn -1 0 -3.0133881713700965e-16
vn 0 1 0
vn 0 -1 0
vn -0.8660254037844389 0 0.4999999999999995
vn 0 1 0
vn 0 -1 0
vn -0.4999999999999999 0 0.8660254037844387
vn 0 1 0
vn 0 -1 0
vn 0 0 1
vn 0 1 0
usemtl m_703ddc04-0b8f-6f16-5d9a-12866cc911ef
f 6/1/1 4/2/1 2/3/1
f 4/4/2 6/5/2 7/6/2 5/7/2
usemtl m_d1536a1b-e47b-d65d-e29c-63f2d3456661
f 5/8/3 7/9/3 3/10/3
usemtl m_703ddc04-0b8f-6f16-5d9a-12866cc911ef
f 8/11/4 6/12/4 2/13/4
f 6/14/5 8/15/5 9/16/5 7/17/5
usemtl m_d1536a1b-e47b-d65d-e29c-63f2d3456661
f 7/18/6 9/19/6 3/20/6
usemtl m_703ddc04-0b8f-6f16-5d9a-12866cc911ef
f 10/21/7 8/22/7 2/23/7
f 8/24/8 10/25/8 11/26/8 9/27/8
usemtl m_d1536a1b-e47b-d65d-e29c-63f2d3456661
f 9/28/9 11/29/9 3/30/9
usemtl m_703ddc04-0b8f-6f16-5d9a-12866cc911ef
f 12/31/10 10/32/10 2/33/10
f 10/34/11 12/35/11 13/36/11 11/37/11
usemtl m_d1536a1b-e47b-d65d-e29c-63f2d3456661
f 11/38/12 13/39/12 3/40/12
usemtl m_703ddc04-0b8f-6f16-5d9a-12866cc911ef
f 14/41/13 12/42/13 2/43/13
f 12/44/14 14/45/14 15/46/14 13/47/14
usemtl m_d1536a1b-e47b-d65d-e29c-63f2d3456661
f 13/48/15 15/49/15 3/50/15
usemtl m_703ddc04-0b8f-6f16-5d9a-12866cc911ef
f 16/51/16 14/52/16 2/53/16
f 14/54/17 16/55/17 17/56/17 15/57/17
usemtl m_d1536a1b-e47b-d65d-e29c-63f2d3456661
f 15/58/18 17/59/18 3/60/18
usemtl m_703ddc04-0b8f-6f16-5d9a-12866cc911ef
f 18/61/19 16/62/19 2/63/19
f 16/64/20 18/65/20 19/66/20 17/67/20
usemtl m_d1536a1b-e47b-d65d-e29c-63f2d3456661
f 17/68/21 19/69/21 3/70/21
usemtl m_703ddc04-0b8f-6f16-5d9a-12866cc911ef
f 20/71/22 18/72/22 2/73/22
f 18/74/23 20/75/23 21/76/23 19/77/23
usemtl m_d1536a1b-e47b-d65d-e29c-63f2d3456661
f 19/78/24 21/79/24 3/80/24
usemtl m_703ddc04-0b8f-6f16-5d9a-12866cc911ef
f 22/81/25 20/82/25 2/83/25
f 20/84/26 22/85/26 23/86/26 21/87/26
usemtl m_d1536a1b-e47b-d65d-e29c-63f2d3456661
f 21/88/27 23/89/27 3/90/27
usemtl m_703ddc04-0b8f-6f16-5d9a-12866cc911ef
f 24/91/28 22/92/28 2/93/28
f 22/94/29 24/95/29 25/96/29 23/97/29
usemtl m_d1536a1b-e47b-d65d-e29c-63f2d3456661
f 23/98/30 25/99/30 3/100/30
usemtl m_703ddc04-0b8f-6f16-5d9a-12866cc911ef
f 26/101/31 24/102/31 2/103/31
f 24/104/32 26/105/32 1/106/32 25/107/32
usemtl m_d1536a1b-e47b-d65d-e29c-63f2d3456661
f 25/108/33 1/109/33 3/110/33
usemtl m_703ddc04-0b8f-6f16-5d9a-12866cc911ef
f 4/111/34 26/112/34 2/113/34
f 26/114/35 4/115/35 5/116/35 1/117/35
usemtl m_d1536a1b-e47b-d65d-e29c-63f2d3456661
f 1/118/36 5/119/36 3/120/36