# Made in Blockbench 4.7.2
mtllib Platform.mtl

o cube
v 0.78125 0.6875 0.78125
v 0.78125 0 0.78125
v 0.78125 0 -0.78125
v -0.78125 0.375 0.78125
v -0.78125 0.375 -0.78125
v -0.78125 0 0.78125
v -0.78125 0 -0.78125
vt 0 1
vt 0 0.8125
vt 0.78125 0.8125
vt 0.78125 0.8125
vt 0.78125 1
vt 0 1
vt 0 0.8125
vt 0 0.21875
vt 0.78125 0.21875
vt 0 1
vt 0.78125 0.21875
vt 0.78125 1
vt 0 1
vt 0 0.21875
vt 0.78125 0.8125
vt 0.78125 1
vt 0 1
vt 0 0.8125
vt 0.78125 1
vt 0 0.8125
vt 0.78125 0.8125
vn 1 0 0
vn -1 0 0
vn -0.19611613513818407 0.9805806756909203 0
vn 0 -1 0
vn 0 0 1
vn 0 0 -1
usemtl none
f 1/1/1 2/2/1 3/3/1
f 6/4/2 4/5/2 5/6/2 7/7/2
f 4/8/3 1/9/3 5/10/3
f 3/11/4 2/12/4 6/13/4 7/14/4
f 2/15/5 1/16/5 4/17/5 6/18/5
f 5/19/6 3/20/6 7/21/6
o cylinder
v -0.18198511713310153 0.1875 0.4999999999999998
v 0 0 0
v 0 0.1875 0
v 0.18198511713310114 0 0.5
v 0.18198511713310114 0.1875 0.5
v 0.4608024925534381 0 0.26604444311897807
v 0.4608024925534381 0.1875 0.26604444311897807
v 0.5240052604587698 0 -0.09239626545204765
v 0.5240052604587698 0.1875 -0.09239626545204765
v 0.34202014332566877 0 -0.40760373454795223
v 0.34202014332566877 0.1875 -0.40760373454795223
v 6.51620951393193e-17 0 -0.532088886237956
v 6.51620951393193e-17 0.1875 -0.532088886237956
v -0.34202014332566866 0 -0.4076037345479523
v -0.34202014332566866 0.1875 -0.4076037345479523
v -0.5240052604587698 0 -0.09239626545204767
v -0.5240052604587698 0.1875 -0.09239626545204767
v -0.4608024925534381 0 0.26604444311897807
v -0.4608024925534381 0.1875 0.26604444311897807
v -0.18198511713310153 0 0.4999999999999998
vt 0.496025 0.875628125
vt 0.35661875 0.99260625
vt 0.265625 0.74260625
vt 0 0.09375
vt 0.1875 0.09375
vt 0.1875 0.1875
vt 0 0.1875
vt 0.76286875 0.04645624999999998
vt 0.9022749999999999 0.16343437500000002
vt 0.671875 0.29645625
vt 0.527628125 0.696409375
vt 0.496025 0.875628125
vt 0.265625 0.74260625
vt 0 0.34375
vt 0.1875 0.34375
vt 0.1875 0.4375
vt 0 0.4375
vt 0.9022749999999999 0.16343437500000002
vt 0.933878125 0.342653125
vt 0.671875 0.29645625
vt 0.436634375 0.538803125
vt 0.527628125 0.696409375
vt 0.265625 0.74260625
vt 0.75 0.90625
vt 0.9375 0.90625
vt 0.9375 1
vt 0.75 1
vt 0.933878125 0.342653125
vt 0.842884375 0.500259375
vt 0.671875 0.29645625
vt 0.265625 0.4765625
vt 0.436634375 0.538803125
vt 0.265625 0.74260625
vt 0 0.21875
vt 0.1875 0.21875
vt 0.1875 0.3125
vt 0 0.3125
vt 0.842884375 0.500259375
vt 0.671875 0.5625
vt 0.671875 0.29645625
vt 0.09461562500000001 0.538803125
vt 0.265625 0.4765625
vt 0.265625 0.74260625
vt 0.5625 0.65625
vt 0.75 0.65625
vt 0.75 0.75
vt 0.5625 0.75
vt 0.671875 0.5625
vt 0.500865625 0.500259375
vt 0.671875 0.29645625
vt 0.0036218749999999966 0.696409375
vt 0.09461562500000001 0.538803125
vt 0.265625 0.74260625
vt 0.78125 0.78125
vt 0.96875 0.78125
vt 0.96875 0.875
vt 0.78125 0.875
vt 0.500865625 0.500259375
vt 0.409871875 0.342653125
vt 0.671875 0.29645625
vt 0.035225000000000006 0.875628125
vt 0.0036218749999999966 0.696409375
vt 0.265625 0.74260625
vt 0.5625 0.78125
vt 0.75 0.78125
vt 0.75 0.875
vt 0.5625 0.875
vt 0.409871875 0.342653125
vt 0.441475 0.16343437500000002
vt 0.671875 0.29645625
vt 0.17463125000000002 0.99260625
vt 0.035225000000000006 0.875628125
vt 0.265625 0.74260625
vt 0.78125 0.65625
vt 0.96875 0.65625
vt 0.96875 0.75
vt 0.78125 0.75
vt 0.441475 0.16343437500000002
vt 0.58088125 0.04645624999999998
vt 0.671875 0.29645625
vt 0.35661875 0.99260625
vt 0.17463125000000002 0.99260625
vt 0.265625 0.74260625
vt 0.53125 0.90625
vt 0.71875 0.90625
vt 0.71875 1
vt 0.53125 1
vt 0.58088125 0.04645624999999998
vt 0.76286875 0.04645624999999998
vt 0.671875 0.29645625
vn 0 -1 0
vn 0.6427876096865395 0 0.7660444431189781
vn 0 1 0
vn 0 -1 0
vn 0.9848077530122081 0 0.1736481776669303
vn 0 1 0
vn 0 -1 0
vn 0.8660254037844389 0 -0.4999999999999999
vn 0 1 0
vn 0 -1 0
vn 0.3420201433256688 0 -0.9396926207859084
vn 0 1 0
vn 0 -1 0
vn -0.3420201433256687 0 -0.9396926207859084
vn 0 1 0
vn 0 -1 0
vn -0.8660254037844386 0 -0.4999999999999999
vn 0 1 0
vn 0 -1 0
vn -0.9848077530122081 0 0.1736481776669303
vn 0 1 0
vn 0 -1 0
vn -0.6427876096865395 0 0.7660444431189779
vn 0 1 0
vn 0 -1 0
vn -6.100625381432455e-16 0 1
vn 0 1 0
usemtl m_6dd360c9-deba-cf01-8087-82f5f43daa5d
f 13/22/7 11/23/7 9/24/7
f 11/25/8 13/26/8 14/27/8 12/28/8
usemtl m_52a5efaa-7474-d2ea-651c-9996d8417629
f 12/29/9 14/30/9 10/31/9
usemtl m_6dd360c9-deba-cf01-8087-82f5f43daa5d
f 15/32/10 13/33/10 9/34/10
f 13/35/11 15/36/11 16/37/11 14/38/11
usemtl m_52a5efaa-7474-d2ea-651c-9996d8417629
f 14/39/12 16/40/12 10/41/12
usemtl m_6dd360c9-deba-cf01-8087-82f5f43daa5d
f 17/42/13 15/43/13 9/44/13
f 15/45/14 17/46/14 18/47/14 16/48/14
usemtl m_52a5efaa-7474-d2ea-651c-9996d8417629
f 16/49/15 18/50/15 10/51/15
usemtl m_6dd360c9-deba-cf01-8087-82f5f43daa5d
f 19/52/16 17/53/16 9/54/16
f 17/55/17 19/56/17 20/57/17 18/58/17
usemtl m_52a5efaa-7474-d2ea-651c-9996d8417629
f 18/59/18 20/60/18 10/61/18
usemtl m_6dd360c9-deba-cf01-8087-82f5f43daa5d
f 21/62/19 19/63/19 9/64/19
f 19/65/20 21/66/20 22/67/20 20/68/20
usemtl m_52a5efaa-7474-d2ea-651c-9996d8417629
f 20/69/21 22/70/21 10/71/21
usemtl m_6dd360c9-deba-cf01-8087-82f5f43daa5d
f 23/72/22 21/73/22 9/74/22
f 21/75/23 23/76/23 24/77/23 22/78/23
usemtl m_52a5efaa-7474-d2ea-651c-9996d8417629
f 22/79/24 24/80/24 10/81/24
usemtl m_6dd360c9-deba-cf01-8087-82f5f43daa5d
f 25/82/25 23/83/25 9/84/25
f 23/85/26 25/86/26 26/87/26 24/88/26
usemtl m_52a5efaa-7474-d2ea-651c-9996d8417629
f 24/89/27 26/90/27 10/91/27
usemtl m_6dd360c9-deba-cf01-8087-82f5f43daa5d
f 27/92/28 25/93/28 9/94/28
f 25/95/29 27/96/29 8/97/29 26/98/29
usemtl m_52a5efaa-7474-d2ea-651c-9996d8417629
f 26/99/30 8/100/30 10/101/30
usemtl m_6dd360c9-deba-cf01-8087-82f5f43daa5d
f 11/102/31 27/103/31 9/104/31
f 27/105/32 11/106/32 12/107/32 8/108/32
usemtl m_52a5efaa-7474-d2ea-651c-9996d8417629
f 8/109/33 12/110/33 10/111/33