# Made in Blockbench 4.7.2
mtllib Stage 7.mtl

o cylinder
v 0 0.1875 0
v 0 0.3125 0
v 0.13397459621556132 0.1875 0.49999999999999994
v 0.13397459621556132 0.3125 0.49999999999999994
v 0.3660254037844386 0.1875 0.36602540378443865
v 0.3660254037844386 0.3125 0.36602540378443865
v 0.49999999999999994 0.1875 0.13397459621556132
v 0.49999999999999994 0.3125 0.13397459621556132
v 0.49999999999999994 0.1875 -0.13397459621556138
v 0.49999999999999994 0.3125 -0.13397459621556138
v 0.36602540378443865 0.1875 -0.3660254037844386
v 0.36602540378443865 0.3125 -0.3660254037844386
v 0.1339745962155615 0.1875 -0.4999999999999999
v 0.1339745962155615 0.3125 -0.4999999999999999
v -0.13397459621556113 0.1875 -0.5
v -0.13397459621556113 0.3125 -0.5
v -0.3660254037844386 0.1875 -0.3660254037844387
v -0.3660254037844386 0.3125 -0.3660254037844387
v -0.49999999999999994 0.1875 -0.13397459621556126
v -0.49999999999999994 0.3125 -0.13397459621556126
v -0.5 0.1875 0.1339745962155611
v -0.5 0.3125 0.1339745962155611
v -0.3660254037844387 0.1875 0.36602540378443854
v -0.3660254037844387 0.3125 0.36602540378443854
v -0.1339745962155613 0.1875 0.49999999999999994
v -0.1339745962155613 0.3125 0.49999999999999994
vt 0.5176375191676121 0.7411812404161939
vt 0.44828802160274145 1
vt 0 0.7411812404161939
vt 0 0.5
vt 0.26795 0.5
vt 0.26795 1
vt 0 1
vt 0 0.48236180528770867
vt 0.2588184218119073 0.5517125634363665
vt 8.326672684688674e-17 1
vt 0.5176381947122913 0.7411815781880927
vt 0.44828743656363346 1
vt 0 0.7411815781880928
vt 0 0.5
vt 0.26795 0.5
vt 0.26795 1
vt 0 1
vt 5.551115123125783e-17 0.48236248083238786
vt 0.25881875958380607 0.5517119783972586
vt 0 1
vt 0.5 0.73205
vt 0.5 1
vt 0 0.866025
vt 0 0.5
vt 0.26795 0.5
vt 0.26795 1
vt 0 1
vt 0.5 0.73205
vt 0.5 1
vt 0 0.866025
vt 5.551115123125783e-17 0.48236248083238786
vt 0.25881875958380607 0.5517119783972586
vt 0 1
vt 0 0.5
vt 0.26795 0.5
vt 0.26795 1
vt 0 1
vt 0.5176381947122913 0.7411815781880927
vt 0.44828743656363346 1
vt 0 0.7411815781880928
vt 0 0.48236180528770867
vt 0.2588184218119073 0.5517125634363665
vt 8.326672684688674e-17 1
vt 0 0.5
vt 0.26795 0.5
vt 0.26795 1
vt 0 1
vt 0.9942000191676121 0.5693062404161939
vt 0.9248505216027414 0.828125
vt 0.4765625 0.5693062404161939
vt 0 0.5
vt 0.26795 0.5
vt 0.133975 1
vt 0 0.5
vt 0.26795 0.5
vt 0.26795 1
vt 0 1
vt 0.26795 1
vt 0 1
vt 0.133975 0.5
vt 0 1
vt 0.06934949756487069 0.7411812404161939
vt 0.5176375191676121 1
vt 0 0.5
vt 0.26795 0.5
vt 0.26795 1
vt 0 1
vt 0.2588184218119073 1
vt 0 0.9306492418513421
vt 0.2588184218119072 0.48236180528770867
vt 0 1
vt 0.06935075814865788 0.7411815781880927
vt 0.5176381947122913 0.9999999999999999
vt 0 0.5
vt 0.26795 0.5
vt 0.26795 1
vt 0 1
vt 0.258818759583806 1
vt 0 0.9306505024351293
vt 0.25881875958380607 0.48236248083238786
vt 0 1
vt 0 0.73205
vt 0.5 0.866025
vt 0 0.5
vt 0.26795 0.5
vt 0.26795 1
vt 0 1
vt 0 1
vt 0 0.73205
vt 0.5 0.866025
vt 0.258818759583806 1
vt 0 0.9306505024351293
vt 0.25881875958380607 0.48236248083238786
vt 0 0.5
vt 0.26795 0.5
vt 0.26795 1
vt 0 1
vt 0 1
vt 0.06935075814865788 0.7411815781880927
vt 0.5176381947122913 0.9999999999999999
vt 0.2588184218119073 1
vt 0 0.9306492418513421
vt 0.2588184218119072 0.48236180528770867
vt 0 0.5
vt 0.26795 0.5
vt 0.26795 1
vt 0 1
vt 0 1
vt 0.06934949756487069 0.7411812404161939
vt 0.5176375191676121 1
vt 0.26795 1
vt 0 1
vt 0.133975 0.5
vt 0 0.5
vt 0.26795 0.5
vt 0.26795 1
vt 0 1
vt 0.5 0
vt 0.76795 0
vt 0.633975 0.5
vn 0 -1 0
vn 0.4999999999999999 0 0.8660254037844388
vn 0 1 0
vn 0 -1 0
vn 0.8660254037844388 0 0.5
vn 0 1 0
vn 0 -1 0
vn 1 0 0
vn 0 1 0
vn 0 -1 0
vn 0.8660254037844388 0 -0.5
vn 0 1 0
vn 0 -1 0
vn 0.5000000000000001 0 -0.8660254037844388
vn 0 1 0
vn 0 -1 0
vn 4.143408735633879e-16 0 -1
vn 0 1 0
vn 0 -1 0
vn -0.4999999999999996 0 -0.8660254037844389
vn 0 1 0
vn 0 -1 0
vn -0.8660254037844389 0 -0.4999999999999998
vn 0 1 0
vn 0 -1 0
vn -1 0 -2.0717043678169412e-16
vn 0 1 0
vn 0 -1 0
vn -0.8660254037844389 0 0.4999999999999996
vn 0 1 0
vn 0 -1 0
vn -0.4999999999999999 0 0.8660254037844386
vn 0 1 0
vn 0 -1 0
vn 0 0 1
vn 0 1 0
usemtl m_7c54e5b9-6636-dd55-58a4-f4b0c729d657
f 5/1/1 3/2/1 1/3/1
f 3/4/2 5/5/2 6/6/2 4/7/2
usemtl m_4f62413e-3fc5-3d50-2f39-850953f97f75
f 4/8/3 6/9/3 2/10/3
usemtl m_7c54e5b9-6636-dd55-58a4-f4b0c729d657
f 7/11/4 5/12/4 1/13/4
f 5/14/5 7/15/5 8/16/5 6/17/5
usemtl m_4f62413e-3fc5-3d50-2f39-850953f97f75
f 6/18/6 8/19/6 2/20/6
usemtl m_7c54e5b9-6636-dd55-58a4-f4b0c729d657
f 9/21/7 7/22/7 1/23/7
f 7/24/8 9/25/8 10/26/8 8/27/8
usemtl m_4f62413e-3fc5-3d50-2f39-850953f97f75
f 8/28/9 10/29/9 2/30/9
usemtl m_7c54e5b9-6636-dd55-58a4-f4b0c729d657
f 11/31/10 9/32/10 1/33/10
f 9/34/11 11/35/11 12/36/11 10/37/11
usemtl m_4f62413e-3fc5-3d50-2f39-850953f97f75
f 10/38/12 12/39/12 2/40/12
f 13/41/13 11/42/13 1/43/13
usemtl m_7c54e5b9-6636-dd55-58a4-f4b0c729d657
f 11/44/14 13/45/14 14/46/14 12/47/14
usemtl m_4f62413e-3fc5-3d50-2f39-850953f97f75
f 12/48/15 14/49/15 2/50/15
f 15/51/16 13/52/16 1/53/16
usemtl m_7c54e5b9-6636-dd55-58a4-f4b0c729d657
f 13/54/17 15/55/17 16/56/17 14/57/17
usemtl m_4f62413e-3fc5-3d50-2f39-850953f97f75
f 14/58/18 16/59/18 2/60/18
usemtl m_7c54e5b9-6636-dd55-58a4-f4b0c729d657
f 17/61/19 15/62/19 1/63/19
f 15/64/20 17/65/20 18/66/20 16/67/20
usemtl m_4f62413e-3fc5-3d50-2f39-850953f97f75
f 16/68/21 18/69/21 2/70/21
f 19/71/22 17/72/22 1/73/22
usemtl m_7c54e5b9-6636-dd55-58a4-f4b0c729d657
f 17/74/23 19/75/23 20/76/23 18/77/23
usemtl m_4f62413e-3fc5-3d50-2f39-850953f97f75
f 18/78/24 20/79/24 2/80/24
f 21/81/25 19/82/25 1/83/25
usemtl m_7c54e5b9-6636-dd55-58a4-f4b0c729d657
f 19/84/26 21/85/26 22/86/26 20/87/26
usemtl m_4f62413e-3fc5-3d50-2f39-850953f97f75
f 20/88/27 22/89/27 2/90/27
usemtl m_7c54e5b9-6636-dd55-58a4-f4b0c729d657
f 23/91/28 21/92/28 1/93/28
f 21/94/29 23/95/29 24/96/29 22/97/29
usemtl m_4f62413e-3fc5-3d50-2f39-850953f97f75
f 22/98/30 24/99/30 2/100/30
f 25/101/31 23/102/31 1/103/31
usemtl m_7c54e5b9-6636-dd55-58a4-f4b0c729d657
f 23/104/32 25/105/32 26/106/32 24/107/32
usemtl m_4f62413e-3fc5-3d50-2f39-850953f97f75
f 24/108/33 26/109/33 2/110/33
f 3/111/34 25/112/34 1/113/34
usemtl m_7c54e5b9-6636-dd55-58a4-f4b0c729d657
f 25/114/35 3/115/35 4/116/35 26/117/35
usemtl m_4f62413e-3fc5-3d50-2f39-850953f97f75
f 26/118/36 4/119/36 2/120/36
o cylinder
v -4.209723372069027e-17 0.34375 0
v -3.827021247335479e-17 0.3125 0
v -4.209723372069027e-17 0.34375 0.53125
v -3.827021247335479e-17 0.3125 0.53125
v -0.265625 0.34374999999999994 0.46007599576048314
v -0.265625 0.31249999999999994 0.46007599576048314
v -0.4600759957604831 0.34374999999999994 0.26562500000000006
v -0.4600759957604831 0.31249999999999994 0.26562500000000006
v -0.53125 0.34374999999999994 3.2529680602351567e-17
v -0.53125 0.31249999999999994 3.2529680602351567e-17
v -0.4600759957604832 0.34374999999999994 -0.2656249999999999
v -0.4600759957604832 0.31249999999999994 -0.2656249999999999
v -0.265625 0.34374999999999994 -0.46007599576048314
v -0.265625 0.31249999999999994 -0.46007599576048314
v -1.071565949253934e-16 0.34375 -0.53125
v -1.0332957367805793e-16 0.3125 -0.53125
v 0.265625 0.34375000000000006 -0.460075995760483
v 0.265625 0.31250000000000006 -0.460075995760483
v 0.46007599576048286 0.34375000000000006 -0.2656250000000003
v 0.46007599576048286 0.31250000000000006 -0.2656250000000003
v 0.53125 0.34375000000000006 -9.758904180705471e-17
v 0.53125 0.31250000000000006 -9.758904180705471e-17
v 0.46007599576048297 0.34375000000000006 0.26562500000000006
v 0.46007599576048297 0.31250000000000006 0.26562500000000006
v 0.2656250000000002 0.34375000000000006 0.4600759957604829
v 0.2656250000000002 0.31250000000000006 0.4600759957604829
vt 0.3984375 0.9644125
vt 0.265625 1
vt 0.265625 0.734375
vt 0.7015625 0.859375
vt 0.8390625 0.859375
vt 0.8390625 0.875
vt 0.7015625 0.875
vt 0.671875 0.03125
vt 0.8046875 0.0668375
vt 0.671875 0.296875
vt 0.4956625 0.8671875
vt 0.3984375 0.9644125
vt 0.265625 0.734375
vt 0.8390625 0.859375
vt 0.9765625 0.859375
vt 0.9765625 0.875
vt 0.8390625 0.875
vt 0.8046875 0.0668375
vt 0.9019125 0.1640625
vt 0.671875 0.296875
vt 0.53125 0.734375
vt 0.4956625 0.8671875
vt 0.265625 0.734375
vt 0.46875 0.984375
vt 0.60625 0.984375
vt 0.60625 1
vt 0.46875 1
vt 0.9019125 0.1640625
vt 0.9375 0.296875
vt 0.671875 0.296875
vt 0.4956625 0.6015625
vt 0.53125 0.734375
vt 0.265625 0.734375
vt 0.60625 0.984375
vt 0.74375 0.984375
vt 0.74375 1
vt 0.60625 1
vt 0.9375 0.296875
vt 0.9019125 0.4296875
vt 0.671875 0.296875
vt 0.3984375 0.5043375
vt 0.4956625 0.6015625
vt 0.265625 0.734375
vt 0.74375 0.984375
vt 0.8812500000000001 0.984375
vt 0.8812500000000001 1
vt 0.74375 1
vt 0.9019125 0.4296875
vt 0.8046875 0.5269125
vt 0.671875 0.296875
vt 0.265625 0.46875
vt 0.3984375 0.5043375
vt 0.265625 0.734375
vt 0 0.421875
vt 0.1375 0.421875
vt 0.1375 0.4375
vt 0 0.4375
vt 0.8046875 0.5269125
vt 0.671875 0.5625
vt 0.671875 0.296875
vt 0.1328125 0.5043375
vt 0.265625 0.46875
vt 0.265625 0.734375
vt 0.1375 0.421875
vt 0.275 0.421875
vt 0.275 0.4375
vt 0.1375 0.4375
vt 0.671875 0.5625
vt 0.5390625 0.5269125
vt 0.671875 0.296875
vt 0.035587499999999994 0.6015625
vt 0.1328125 0.5043375
vt 0.265625 0.734375
vt 0.5625 0.78125
vt 0.6875 0.78125
vt 0.6875 0.8125
vt 0.5625 0.8125
vt 0.5390625 0.5269125
vt 0.4418375 0.4296875
vt 0.671875 0.296875
vt 0 0.734375
vt 0.035587499999999994 0.6015625
vt 0.265625 0.734375
vt 0.53125 0.921875
vt 0.66875 0.921875
vt 0.66875 0.9375
vt 0.53125 0.9375
vt 0.4418375 0.4296875
vt 0.40625 0.296875
vt 0.671875 0.296875
vt 0.035587499999999994 0.8671875
vt 0 0.734375
vt 0.265625 0.734375
vt 0.66875 0.921875
vt 0.80625 0.921875
vt 0.80625 0.9375
vt 0.66875 0.9375
vt 0.40625 0.296875
vt 0.4418375 0.1640625
vt 0.671875 0.296875
vt 0.1328125 0.9644125
vt 0.035587499999999994 0.8671875
vt 0.265625 0.734375
vt 0.80625 0.921875
vt 0.9437500000000001 0.921875
vt 0.9437500000000001 0.9375
vt 0.80625 0.9375
vt 0.4418375 0.1640625
vt 0.5390625 0.0668375
vt 0.671875 0.296875
vt 0.265625 1
vt 0.1328125 0.9644125
vt 0.265625 0.734375
vt 0.5640624999999999 0.859375
vt 0.7015625 0.859375
vt 0.7015625 0.875
vt 0.5640624999999999 0.875
vt 0.5390625 0.0668375
vt 0.671875 0.03125
vt 0.671875 0.296875
vn -1.2246467991473532e-16 1 0
vn -0.2588190451025205 -3.169619151431762e-17 0.9659258262890685
vn 1.2246467991473532e-16 -1 0
vn -1.2246467991473532e-16 1 0
vn -0.7071067811865476 -8.659560562354934e-17 0.7071067811865476
vn 1.2246467991473532e-16 -1 0
vn -1.2246467991473532e-16 1 0
vn -0.9659258262890684 -1.1829179713786698e-16 0.2588190451025208
vn 1.2246467991473532e-16 -1 0
vn -1.2246467991473532e-16 1 0
vn -0.9659258262890685 -1.18291797137867e-16 -0.2588190451025205
vn 1.2246467991473532e-16 -1 0
vn -1.2246467991473532e-16 1 0
vn -0.7071067811865477 -8.659560562354935e-17 -0.7071067811865475
vn 1.2246467991473532e-16 -1 0
vn -1.2246467991473532e-16 1 0
vn -0.2588190451025205 -3.169619151431762e-17 -0.9659258262890683
vn 1.2246467991473532e-16 -1 0
vn -1.2246467991473532e-16 1 0
vn 0.2588190451025207 3.169619151431764e-17 -0.9659258262890684
vn 1.2246467991473532e-16 -1 0
vn -1.2246467991473532e-16 1 0
vn 0.7071067811865474 8.659560562354932e-17 -0.7071067811865478
vn 1.2246467991473532e-16 -1 0
vn -1.2246467991473532e-16 1 0
vn 0.9659258262890682 1.1829179713786696e-16 -0.258819045102521
vn 1.2246467991473532e-16 -1 0
vn -1.2246467991473532e-16 1 0
vn 0.9659258262890684 1.1829179713786698e-16 0.25881904510252063
vn 1.2246467991473532e-16 -1 0
vn -1.2246467991473532e-16 1 0
vn 0.7071067811865478 8.659560562354938e-17 0.7071067811865474
vn 1.2246467991473532e-16 -1 0
vn -1.2246467991473532e-16 1 0
vn 0.2588190451025209 3.169619151431767e-17 0.9659258262890682
vn 1.2246467991473532e-16 -1 0
usemtl m_4f62413e-3fc5-3d50-2f39-850953f97f75
f 31/121/37 29/122/37 27/123/37
f 29/124/38 31/125/38 32/126/38 30/127/38
usemtl m_d2d4b605-b439-336c-6edc-e0befbfcaf98
f 30/128/39 32/129/39 28/130/39
usemtl m_4f62413e-3fc5-3d50-2f39-850953f97f75
f 33/131/40 31/132/40 27/133/40
f 31/134/41 33/135/41 34/136/41 32/137/41
usemtl m_d2d4b605-b439-336c-6edc-e0befbfcaf98
f 32/138/42 34/139/42 28/140/42
usemtl m_4f62413e-3fc5-3d50-2f39-850953f97f75
f 35/141/43 33/142/43 27/143/43
f 33/144/44 35/145/44 36/146/44 34/147/44
usemtl m_d2d4b605-b439-336c-6edc-e0befbfcaf98
f 34/148/45 36/149/45 28/150/45
usemtl m_4f62413e-3fc5-3d50-2f39-850953f97f75
f 37/151/46 35/152/46 27/153/46
f 35/154/47 37/155/47 38/156/47 36/157/47
usemtl m_d2d4b605-b439-336c-6edc-e0befbfcaf98
f 36/158/48 38/159/48 28/160/48
usemtl m_4f62413e-3fc5-3d50-2f39-850953f97f75
f 39/161/49 37/162/49 27/163/49
f 37/164/50 39/165/50 40/166/50 38/167/50
usemtl m_d2d4b605-b439-336c-6edc-e0befbfcaf98
f 38/168/51 40/169/51 28/170/51
usemtl m_4f62413e-3fc5-3d50-2f39-850953f97f75
f 41/171/52 39/172/52 27/173/52
f 39/174/53 41/175/53 42/176/53 40/177/53
usemtl m_d2d4b605-b439-336c-6edc-e0befbfcaf98
f 40/178/54 42/179/54 28/180/54
usemtl m_4f62413e-3fc5-3d50-2f39-850953f97f75
f 43/181/55 41/182/55 27/183/55
f 41/184/56 43/185/56 44/186/56 42/187/56
usemtl m_d2d4b605-b439-336c-6edc-e0befbfcaf98
f 42/188/57 44/189/57 28/190/57
usemtl m_4f62413e-3fc5-3d50-2f39-850953f97f75
f 45/191/58 43/192/58 27/193/58
f 43/194/59 45/195/59 46/196/59 44/197/59
usemtl m_d2d4b605-b439-336c-6edc-e0befbfcaf98
f 44/198/60 46/199/60 28/200/60
usemtl m_4f62413e-3fc5-3d50-2f39-850953f97f75
f 47/201/61 45/202/61 27/203/61
f 45/204/62 47/205/62 48/206/62 46/207/62
usemtl m_d2d4b605-b439-336c-6edc-e0befbfcaf98
f 46/208/63 48/209/63 28/210/63
usemtl m_4f62413e-3fc5-3d50-2f39-850953f97f75
f 49/211/64 47/212/64 27/213/64
f 47/214/65 49/215/65 50/216/65 48/217/65
usemtl m_d2d4b605-b439-336c-6edc-e0befbfcaf98
f 48/218/66 50/219/66 28/220/66
usemtl m_4f62413e-3fc5-3d50-2f39-850953f97f75
f 51/221/67 49/222/67 27/223/67
f 49/224/68 51/225/68 52/226/68 50/227/68
usemtl m_d2d4b605-b439-336c-6edc-e0befbfcaf98
f 50/228/69 52/229/69 28/230/69
usemtl m_4f62413e-3fc5-3d50-2f39-850953f97f75
f 29/231/70 51/232/70 27/233/70
f 51/234/71 29/235/71 30/236/71 52/237/71
usemtl m_d2d4b605-b439-336c-6edc-e0befbfcaf98
f 52/238/72 30/239/72 28/240/72